<svg version="1.1" id="Layer_1" xmlns="http://www.w3.org/2000/svg" xmlns:xlink="http://www.w3.org/1999/xlink" x="0px" y="0px" width="100%" viewBox="0 0 460 460" enable-background="new 0 0 460 460" xml:space="preserve">
<path fill="#FFFFFF" opacity="1.000000" stroke="none" d="
M1.000000,421.000000 
	C1.000000,294.644012 1.000000,168.288055 1.325927,41.760616 
	C2.026716,41.265499 2.623340,41.009007 2.744599,40.608562 
	C8.542112,21.462946 20.911541,8.862021 40.048405,2.901036 
	C40.517475,2.754923 40.689457,1.655041 41.000000,1.000000 
	C167.355972,1.000000 293.711945,1.000000 420.239136,1.327926 
	C423.618042,2.944955 426.991943,3.929764 430.005096,5.575184 
	C443.966980,13.199534 454.374878,23.936510 459.063934,39.555660 
	C459.249878,40.175034 460.334229,40.524677 461.000000,41.000000 
	C461.000000,167.355972 461.000000,293.711945 460.674072,420.239380 
	C459.973633,420.734100 459.381561,420.989197 459.255798,421.390381 
	C453.121368,440.965576 440.362122,453.712524 420.493164,459.227997 
	C420.188293,459.312683 420.158295,460.387360 420.000000,461.000000 
	C294.310699,461.000000 168.621384,461.000000 42.762169,460.666565 
	C41.015659,459.687805 39.455261,458.999054 37.859982,458.403748 
	C20.529999,451.937164 8.799947,440.061829 2.939011,422.440887 
	C2.730786,421.814850 1.665715,421.473846 1.000000,421.000000 
M127.437393,318.633667 
	C124.342896,319.090759 121.249161,319.553101 118.153755,320.003998 
	C104.285477,322.024109 90.396675,323.919403 76.571457,326.200256 
	C74.666718,326.514526 73.076492,328.735260 71.340660,330.073364 
	C72.843483,331.199799 74.250206,332.500031 75.878128,333.400269 
	C77.298286,334.185577 78.929939,334.776428 80.533096,335.012939 
	C92.277855,336.745453 103.993675,338.898224 115.805008,339.905823 
	C136.226761,341.647888 156.697021,342.983307 177.173843,343.861664 
	C191.116150,344.459778 205.104385,344.006104 219.071915,343.965454 
	C220.342728,343.961761 221.612335,343.539337 223.833664,343.335327 
	C233.572678,343.262573 243.311707,343.189850 253.566574,343.652252 
	C255.421768,343.341919 257.276978,343.031555 260.046600,342.785645 
	C265.675537,342.612366 271.304504,342.439087 277.076385,342.878845 
	C278.071930,342.666718 279.067444,342.454559 280.866241,342.075256 
	C282.228027,342.010284 283.589844,341.945282 285.496796,342.540344 
	C287.296173,342.698639 289.110962,343.094452 290.892578,342.978851 
	C311.008942,341.673553 331.155365,340.660889 351.217041,338.760162 
	C360.333801,337.896423 369.308044,335.353546 378.278168,333.275604 
	C379.917389,332.895905 381.224945,331.084351 382.685577,329.933746 
	C381.066956,328.661011 379.599426,326.584991 377.804932,326.247406 
	C367.112823,324.236328 356.345184,322.626831 346.018280,320.321045 
	C382.006165,292.989746 389.989685,254.351257 390.254791,211.998734 
	C385.023315,211.998734 380.413483,211.765854 375.833862,212.039093 
	C356.131592,213.214584 337.004059,217.005005 318.938568,225.244003 
	C293.122925,237.017532 276.128906,256.722443 267.710815,283.622559 
	C264.404327,294.188477 262.423096,305.169128 259.003204,315.986359 
	C257.053284,315.984009 255.103378,315.981689 253.014648,315.053833 
	C253.014648,288.766754 253.014648,262.479675 253.014648,236.176010 
	C255.844101,235.357910 258.237091,234.666946 260.629547,233.974075 
	C281.698822,227.872406 297.154053,214.724640 307.887909,195.880692 
	C318.321655,177.563522 316.899200,157.480438 316.350525,136.983719 
	C307.187775,136.983719 298.292206,136.983719 288.876282,136.983719 
	C288.876282,131.219940 288.876282,125.985588 288.876282,120.788574 
	C253.637863,120.788574 218.935043,120.788574 183.867020,120.788574 
	C183.867020,126.317848 183.867020,131.433472 183.867020,137.085052 
	C174.953720,137.085052 166.395340,137.085052 157.910065,137.085052 
	C153.197403,184.375519 169.742767,223.439728 222.801971,236.637650 
	C222.801971,244.319107 222.832321,252.124222 222.795929,259.929047 
	C222.708954,278.584045 222.590515,297.238922 221.728973,315.924469 
	C220.195740,315.935791 218.662521,315.947113 216.898682,315.165192 
	C214.376129,295.879364 209.216095,277.425018 198.955963,260.729950 
	C192.101379,249.576279 183.192307,240.335266 172.170746,233.081696 
	C154.545288,221.481934 134.863251,215.955338 114.272621,213.267410 
	C105.331985,212.100281 96.262131,211.923065 85.862495,211.199646 
	C87.012848,223.328949 87.537460,234.088272 89.133652,244.686188 
	C93.489975,273.609924 104.250130,299.306885 127.437393,318.633667 
M258.022491,42.450230 
	C253.416840,41.126522 248.888138,39.133293 244.192383,38.593704 
	C222.567093,36.108738 205.083145,43.427502 192.358963,61.434734 
	C182.824570,74.927780 183.779922,90.241005 184.155075,105.706863 
	C219.202652,105.706863 253.919907,105.706863 289.000580,105.706863 
	C289.000580,99.951019 289.063263,94.481834 288.989532,89.014496 
	C288.695374,67.197121 278.381256,51.920898 258.022491,42.450230 
M36.985886,409.492493 
	C36.985886,413.963898 36.985886,418.435303 36.985886,423.237579 
	C40.643044,422.920929 44.807301,425.698853 46.303539,420.005859 
	C54.094540,426.830353 67.754456,425.232788 74.250755,417.501892 
	C79.867844,410.817230 81.163605,398.655579 75.161629,391.750702 
	C72.264969,388.418304 68.102219,385.597076 63.951508,384.081146 
	C57.600002,381.761505 51.295223,383.311493 45.427292,388.726685 
	C45.427292,382.768951 45.427292,377.846893 45.427292,372.760986 
	C42.379784,372.760986 39.815948,372.760986 37.331772,372.760986 
	C37.169197,373.384796 37.014793,373.701782 37.014286,374.019043 
	C36.995926,385.510895 36.991898,397.002808 36.985886,409.492493 
M280.808502,397.837982 
	C279.063477,391.296844 275.117371,386.391998 268.783997,384.219727 
	C261.773987,381.815430 254.823441,382.225189 248.976089,388.178314 
	C248.214447,380.897339 243.374344,385.101959 240.203003,383.890167 
	C240.203003,401.488983 240.203003,418.553406 240.203003,435.773285 
	C242.988480,435.773285 245.554489,435.773285 248.639587,435.773285 
	C248.639587,430.174011 248.639587,424.795959 248.639587,419.070557 
	C256.336731,424.633911 264.631409,425.325806 271.281586,421.292633 
	C279.226868,416.474030 282.667297,408.446716 280.808502,397.837982 
M312.296997,412.035919 
	C314.876129,414.782593 317.067657,418.103363 320.112976,420.159515 
	C327.002563,424.811310 334.756897,424.664246 341.988739,421.266693 
	C348.823914,418.055511 353.043945,412.286377 353.514526,404.430084 
	C354.010437,396.150330 349.286530,387.956970 341.485687,384.903473 
	C332.544250,381.403442 323.744659,381.991516 316.410095,388.947815 
	C311.966125,393.162598 307.491516,401.217712 312.296997,412.035919 
M119.801933,414.096832 
	C120.661507,404.146729 121.521088,394.196625 122.398285,384.042572 
	C118.492622,384.042572 115.944183,384.042572 113.198364,384.042572 
	C113.198364,391.045959 113.231987,397.693787 113.189018,404.341156 
	C113.144997,411.152374 109.927635,414.860962 104.074364,414.967194 
	C97.696045,415.082977 94.641983,411.702667 94.593521,404.350342 
	C94.548996,397.594269 94.584061,390.837646 94.584061,383.999268 
	C91.233414,383.999268 88.497345,383.999268 85.891884,383.999268 
	C85.891884,392.256470 85.487144,400.224854 86.009552,408.131989 
	C86.498970,415.539978 92.155510,421.565582 98.738533,423.026367 
	C107.484978,424.967163 114.967583,421.959381 119.801933,414.096832 
M389.747620,419.289764 
	C391.487366,416.745667 394.548248,414.290863 394.727386,411.641266 
	C395.348114,402.459961 394.966858,393.210938 394.966858,384.059174 
	C392.441284,384.059174 390.039978,384.059174 387.422424,384.059174 
	C387.422424,390.912476 387.465454,397.399323 387.410828,403.885315 
	C387.350830,411.015259 384.030365,414.910248 378.084686,414.970459 
	C371.786865,415.034241 368.602356,411.275757 368.581207,403.704651 
	C368.562805,397.122772 368.577362,390.540863 368.577362,384.040192 
	C365.258636,384.040192 362.701752,384.040192 359.971283,384.040192 
	C359.971283,391.045471 360.148376,397.708466 359.924377,404.357941 
	C359.671173,411.873810 362.213898,417.878296 369.037292,421.292023 
	C375.905212,424.727936 382.805542,424.477051 389.747620,419.289764 
M225.649750,384.694427 
	C220.589371,384.380615 215.426590,383.298523 210.495667,383.955811 
	C204.873489,384.705231 200.963791,390.460449 200.984695,395.802216 
	C201.002213,400.274963 204.282867,404.090759 209.967896,405.710785 
	C212.828018,406.525818 216.049210,406.294922 218.739136,407.418213 
	C221.017395,408.369659 222.766235,410.588867 224.749359,412.247040 
	C222.487915,413.826019 220.098679,416.867218 217.991333,416.683075 
	C213.446045,416.285797 209.045563,414.231720 203.924591,412.651520 
	C202.851822,413.558075 201.006088,415.117828 199.086624,416.739868 
	C206.682159,423.668213 214.694901,425.226471 223.465179,422.987183 
	C229.592834,421.422668 233.505783,416.028687 233.273666,410.154053 
	C233.065811,404.893860 229.495956,401.618835 222.573547,400.365387 
	C219.800888,399.863342 216.853745,399.812622 214.301498,398.778137 
	C212.471008,398.036163 211.164581,396.001282 209.624344,394.543182 
	C211.319168,393.028137 213.080292,390.177032 214.695969,390.257233 
	C218.958786,390.468719 223.158478,391.952148 228.018616,393.076111 
	C228.701447,392.161591 230.044220,390.363220 231.539383,388.360748 
	C229.694733,387.142059 228.043869,386.051422 225.649750,384.694427 
M179.187195,395.425842 
	C173.996964,404.180176 168.806717,412.934540 163.321625,422.186218 
	C174.275986,422.186218 184.289383,422.186218 194.133926,422.186218 
	C194.133926,419.380859 194.133926,417.001678 194.133926,414.243378 
	C188.433533,414.243378 183.175858,414.243378 177.205841,414.243378 
	C183.355011,403.866699 189.148605,394.090057 195.139648,383.980225 
	C184.459106,383.980225 174.704819,383.980225 165.106934,383.980225 
	C165.106934,386.668945 165.106934,389.057068 165.106934,391.828339 
	C170.605347,391.828339 175.688095,391.828339 181.441574,391.828339 
	C180.620453,393.216370 180.150253,394.011230 179.187195,395.425842 
M143.505798,422.578552 
	C148.789963,422.578552 154.074112,422.578552 159.469391,422.578552 
	C159.469391,419.609497 159.469391,417.228882 159.469391,414.140076 
	C153.679718,414.140076 148.199280,414.140076 142.197159,414.140076 
	C148.464142,403.700104 154.264832,394.036957 160.304642,383.975403 
	C149.679825,383.975403 139.955200,383.975403 130.162781,383.975403 
	C130.162781,386.548767 130.162781,388.835175 130.162781,391.776672 
	C135.505447,391.776672 140.686218,391.776672 146.420670,391.776672 
	C140.218719,402.255066 134.459488,411.985474 128.189789,422.578339 
	C133.652878,422.578339 138.082733,422.578339 143.505798,422.578552 
M416.566040,407.198395 
	C416.566040,402.092651 416.566040,396.986908 416.566040,391.901520 
	C419.146881,391.626312 421.060547,391.422241 422.976807,391.217896 
	C422.976807,388.606049 422.976807,386.342712 422.976807,383.961823 
	C420.842926,383.748810 418.927246,383.557556 416.417114,383.307007 
	C416.417114,379.216644 416.417114,375.339081 416.417114,370.966187 
	C413.185577,371.815582 410.667450,372.477448 407.907867,373.202789 
	C407.907867,376.668457 407.907867,379.960297 407.907867,383.376434 
	C406.175323,383.596466 404.726288,383.780487 403.136719,383.982361 
	C403.136719,386.412842 403.136719,388.713867 403.136719,391.179871 
	C404.771545,391.448486 406.310913,391.701385 407.977570,391.975220 
	C407.977570,396.664825 407.977539,400.982880 407.977570,405.300964 
	C407.977631,415.647797 410.464661,419.244354 420.756073,423.322266 
	C421.867188,421.285370 423.004944,419.199615 424.142700,417.113861 
	C423.616791,417.250000 423.090881,417.386139 422.564972,417.522308 
	C420.569824,414.385284 418.574646,411.248230 416.566040,407.198395 
M298.269226,409.479919 
	C298.269379,406.157074 298.232727,402.833710 298.277374,399.511444 
	C298.367676,392.793762 300.900787,390.653412 307.697205,391.748779 
	C308.448883,389.182281 309.208923,386.587311 310.494965,382.196259 
	C305.433746,383.599152 301.742218,384.622375 298.089935,385.634735 
	C296.793823,382.025665 293.173798,384.712769 290.371399,383.985291 
	C290.371399,397.012238 290.371399,409.666199 290.371399,422.198059 
	C293.164612,422.198059 295.566925,422.198059 298.269043,422.198059 
	C298.269043,418.060333 298.269043,414.262360 298.269226,409.479919 
z" data-index="0" style="opacity: 1;"></path>

<path fill="#000000" opacity="1.000000" stroke="none" d="
M1.000000,421.468658 
	C1.665715,421.473846 2.730786,421.814850 2.939011,422.440887 
	C8.799947,440.061829 20.529999,451.937164 37.859982,458.403748 
	C39.455261,458.999054 41.015659,459.687805 42.296127,460.666565 
	C28.407578,461.000000 14.815155,461.000000 1.000000,461.000000 
	C1.000000,447.979950 1.000000,434.958649 1.000000,421.468658 
z" data-index="2" style="opacity: 1; stroke-width: 2px; stroke: rgb(13, 153, 255); visibility: hidden;"></path>

<path fill="#000000" opacity="1.000000" stroke="none" d="
M40.531342,1.000000 
	C40.689457,1.655041 40.517475,2.754923 40.048405,2.901036 
	C20.911541,8.862021 8.542112,21.462946 2.744599,40.608562 
	C2.623340,41.009007 2.026716,41.265499 1.325927,41.294575 
	C1.000000,27.740011 1.000000,14.480022 1.000000,1.000000 
	C14.020069,1.000000 27.041376,1.000000 40.531342,1.000000 
z" data-index="4" style="opacity: 1; stroke-width: 2px; stroke: rgb(13, 153, 255); visibility: hidden;"></path>
<path fill="#709A55" opacity="1.000000" stroke="none" d="
M253.050720,343.117126 
	C243.311707,343.189850 233.572678,343.262573 223.341461,342.831757 
	C222.727753,333.516724 222.606277,324.705292 222.484787,315.893829 
	C222.590515,297.238922 222.708954,278.584045 222.795929,259.929047 
	C222.832321,252.124222 222.801971,244.319107 222.801971,236.637650 
	C169.742767,223.439728 153.197403,184.375519 157.910065,137.085052 
	C166.395340,137.085052 174.953720,137.085052 183.867020,137.085052 
	C183.867020,131.433472 183.867020,126.317848 183.867020,120.788574 
	C218.935043,120.788574 253.637863,120.788574 288.876282,120.788574 
	C288.876282,125.985588 288.876282,131.219940 288.876282,136.983719 
	C298.292206,136.983719 307.187775,136.983719 316.350525,136.983719 
	C316.899200,157.480438 318.321655,177.563522 307.887909,195.880692 
	C297.154053,214.724640 281.698822,227.872406 260.629547,233.974075 
	C258.237091,234.666946 255.844101,235.357910 253.014648,236.176010 
	C253.014648,262.479675 253.014648,288.766754 253.018860,315.982056 
	C253.032272,325.645874 253.041489,334.381500 253.050720,343.117126 
M283.155273,180.519485 
	C276.771423,191.536148 267.524811,199.185989 255.802704,204.023209 
	C254.665253,204.492584 253.185440,205.865524 253.119385,206.899216 
	C252.826859,211.476379 252.992737,216.082840 252.992737,220.781189 
	C285.943268,213.272736 306.454681,180.648468 301.251770,152.256195 
	C297.309906,152.256195 293.380463,152.256195 289.020477,152.256195 
	C289.660950,162.108749 287.792236,171.252502 283.155273,180.519485 
M178.472046,151.988983 
	C176.520599,151.988983 174.569153,151.988983 172.689392,151.988983 
	C168.302612,187.620422 195.361145,216.953079 222.572159,220.607346 
	C222.572159,215.644669 222.572159,210.703888 222.572159,205.814072 
	C197.097168,196.870300 183.810089,179.264328 183.831451,151.989029 
	C182.035690,151.989029 180.725021,151.989029 178.472046,151.988983 
z" data-index="5" style="opacity: 1;"></path>
<path fill="#7CB547" opacity="1.000000" stroke="none" d="
M259.838348,315.960907 
	C262.423096,305.169128 264.404327,294.188477 267.710815,283.622559 
	C276.128906,256.722443 293.122925,237.017532 318.938568,225.244003 
	C337.004059,217.005005 356.131592,213.214584 375.833862,212.039093 
	C380.413483,211.765854 385.023315,211.998734 390.254791,211.998734 
	C389.989685,254.351257 382.006165,292.989746 345.476440,320.617004 
	C330.785461,329.946564 315.468414,335.992035 298.942108,338.998016 
	C294.258820,339.849854 289.614044,340.913696 284.951630,341.880310 
	C283.589844,341.945282 282.228027,342.010284 280.077881,342.067078 
	C278.504150,342.127899 277.718811,342.196838 276.933441,342.265808 
	C271.304504,342.439087 265.675537,342.612366 259.536621,342.308105 
	C259.297211,333.207367 259.567780,324.584137 259.838348,315.960907 
z" data-index="6" style="opacity: 1;"></path>
<path fill="#7CB547" opacity="1.000000" stroke="none" d="
M127.971519,318.056976 
	C104.250130,299.306885 93.489975,273.609924 89.133652,244.686188 
	C87.537460,234.088272 87.012848,223.328949 85.862495,211.199646 
	C96.262131,211.923065 105.331985,212.100281 114.272621,213.267410 
	C134.863251,215.955338 154.545288,221.481934 172.170746,233.081696 
	C183.192307,240.335266 192.101379,249.576279 198.955963,260.729950 
	C209.216095,277.425018 214.376129,295.879364 216.961365,316.015472 
	C217.431320,325.230438 217.838577,333.595123 218.264832,342.349915 
	C185.103378,342.735352 154.821365,336.790527 127.971519,318.056976 
z" data-index="7" style="opacity: 1;"></path>
<path fill="#657E63" opacity="1.000000" stroke="none" d="
M258.362122,42.622128 
	C278.381256,51.920898 288.695374,67.197121 288.989532,89.014496 
	C289.063263,94.481834 289.000580,99.951019 289.000580,105.706863 
	C253.919907,105.706863 219.202652,105.706863 184.155075,105.706863 
	C183.779922,90.241005 182.824570,74.927780 192.358963,61.434734 
	C205.083145,43.427502 222.567093,36.108738 244.192383,38.593704 
	C248.888138,39.133293 253.416840,41.126522 258.362122,42.622128 
z" data-index="8"></path>
<path fill="#E2E4E0" opacity="1.000000" stroke="none" d="
M127.704453,318.345337 
	C154.821365,336.790527 185.103378,342.735352 218.264832,342.349915 
	C217.838577,333.595123 217.431320,325.230438 217.076675,316.412109 
	C218.662521,315.947113 220.195740,315.935791 222.106873,315.909149 
	C222.606277,324.705292 222.727753,333.516724 222.865875,342.819794 
	C221.612335,343.539337 220.342728,343.961761 219.071915,343.965454 
	C205.104385,344.006104 191.116150,344.459778 177.173843,343.861664 
	C156.697021,342.983307 136.226761,341.647888 115.805008,339.905823 
	C103.993675,338.898224 92.277855,336.745453 80.533096,335.012939 
	C78.929939,334.776428 77.298286,334.185577 75.878128,333.400269 
	C74.250206,332.500031 72.843483,331.199799 71.340660,330.073364 
	C73.076492,328.735260 74.666718,326.514526 76.571457,326.200256 
	C90.396675,323.919403 104.285477,322.024109 118.153755,320.003998 
	C121.249161,319.553101 124.342896,319.090759 127.704453,318.345337 
z" data-index="9"></path>
<path fill="#393939" opacity="1.000000" stroke="none" d="
M36.985886,408.993591 
	C36.991898,397.002808 36.995926,385.510895 37.014286,374.019043 
	C37.014793,373.701782 37.169197,373.384796 37.331772,372.760986 
	C39.815948,372.760986 42.379784,372.760986 45.427292,372.760986 
	C45.427292,377.846893 45.427292,382.768951 45.427292,388.726685 
	C51.295223,383.311493 57.600002,381.761505 63.951508,384.081146 
	C68.102219,385.597076 72.264969,388.418304 75.161629,391.750702 
	C81.163605,398.655579 79.867844,410.817230 74.250755,417.501892 
	C67.754456,425.232788 54.094540,426.830353 46.303539,420.005859 
	C44.807301,425.698853 40.643044,422.920929 36.985886,423.237579 
	C36.985886,418.435303 36.985886,413.963898 36.985886,408.993591 
M69.360390,399.558960 
	C66.441460,393.096527 61.051704,389.930847 55.380692,391.347870 
	C48.896843,392.968018 45.063354,398.252716 45.539082,404.915100 
	C45.990280,411.233978 50.737915,416.170959 56.930378,416.636597 
	C63.711563,417.146484 71.767052,411.868988 69.360390,399.558960 
z" data-index="10" style="opacity: 1;"></path>
<path fill="#393939" opacity="1.000000" stroke="none" d="
M280.902802,398.230896 
	C282.667297,408.446716 279.226868,416.474030 271.281586,421.292633 
	C264.631409,425.325806 256.336731,424.633911 248.639587,419.070557 
	C248.639587,424.795959 248.639587,430.174011 248.639587,435.773285 
	C245.554489,435.773285 242.988480,435.773285 240.203003,435.773285 
	C240.203003,418.553406 240.203003,401.488983 240.203003,383.890167 
	C243.374344,385.101959 248.214447,380.897339 248.976089,388.178314 
	C254.823441,382.225189 261.773987,381.815430 268.783997,384.219727 
	C275.117371,386.391998 279.063477,391.296844 280.902802,398.230896 
M265.179688,391.893463 
	C259.105774,389.982025 254.664642,391.025787 251.265411,395.163513 
	C247.754166,399.437531 247.310120,405.183899 250.120514,409.979828 
	C252.614517,414.235870 257.493103,416.635345 262.281006,415.960907 
	C267.101440,415.281891 271.484406,411.073334 272.792725,405.867371 
	C273.998871,401.068054 271.480743,396.046570 265.179688,391.893463 
z" data-index="11"></path>
<path fill="#E4E4E3" opacity="1.000000" stroke="none" d="
M285.224213,342.210327 
	C289.614044,340.913696 294.258820,339.849854 298.942108,338.998016 
	C315.468414,335.992035 330.785461,329.946564 345.268738,320.897705 
	C356.345184,322.626831 367.112823,324.236328 377.804932,326.247406 
	C379.599426,326.584991 381.066956,328.661011 382.685577,329.933746 
	C381.224945,331.084351 379.917389,332.895905 378.278168,333.275604 
	C369.308044,335.353546 360.333801,337.896423 351.217041,338.760162 
	C331.155365,340.660889 311.008942,341.673553 290.892578,342.978851 
	C289.110962,343.094452 287.296173,342.698639 285.224213,342.210327 
z" data-index="12"></path>
<path fill="#393939" opacity="1.000000" stroke="none" d="
M312.131500,411.693726 
	C307.491516,401.217712 311.966125,393.162598 316.410095,388.947815 
	C323.744659,381.991516 332.544250,381.403442 341.485687,384.903473 
	C349.286530,387.956970 354.010437,396.150330 353.514526,404.430084 
	C353.043945,412.286377 348.823914,418.055511 341.988739,421.266693 
	C334.756897,424.664246 327.002563,424.811310 320.112976,420.159515 
	C317.067657,418.103363 314.876129,414.782593 312.131500,411.693726 
M344.014435,406.482300 
	C343.419098,402.841522 343.757568,398.653656 342.017426,395.683594 
	C339.149658,390.788818 332.086670,389.469452 326.956665,391.677917 
	C321.391724,394.073639 318.618439,399.246613 319.598114,405.403687 
	C320.500153,411.072815 324.483368,414.855469 330.263184,415.531769 
	C336.490601,416.260498 341.594971,413.152435 344.014435,406.482300 
z" data-index="13"></path>
<path fill="#404040" opacity="1.000000" stroke="none" d="
M119.590294,414.413269 
	C114.967583,421.959381 107.484978,424.967163 98.738533,423.026367 
	C92.155510,421.565582 86.498970,415.539978 86.009552,408.131989 
	C85.487144,400.224854 85.891884,392.256470 85.891884,383.999268 
	C88.497345,383.999268 91.233414,383.999268 94.584061,383.999268 
	C94.584061,390.837646 94.548996,397.594269 94.593521,404.350342 
	C94.641983,411.702667 97.696045,415.082977 104.074364,414.967194 
	C109.927635,414.860962 113.144997,411.152374 113.189018,404.341156 
	C113.231987,397.693787 113.198364,391.045959 113.198364,384.042572 
	C115.944183,384.042572 118.492622,384.042572 122.398285,384.042572 
	C121.521088,394.196625 120.661507,404.146729 119.590294,414.413269 
z" data-index="14"></path>
<path fill="#3F3F3F" opacity="1.000000" stroke="none" d="
M389.486816,419.545288 
	C382.805542,424.477051 375.905212,424.727936 369.037292,421.292023 
	C362.213898,417.878296 359.671173,411.873810 359.924377,404.357941 
	C360.148376,397.708466 359.971283,391.045471 359.971283,384.040192 
	C362.701752,384.040192 365.258636,384.040192 368.577362,384.040192 
	C368.577362,390.540863 368.562805,397.122772 368.581207,403.704651 
	C368.602356,411.275757 371.786865,415.034241 378.084686,414.970459 
	C384.030365,414.910248 387.350830,411.015259 387.410828,403.885315 
	C387.465454,397.399323 387.422424,390.912476 387.422424,384.059174 
	C390.039978,384.059174 392.441284,384.059174 394.966858,384.059174 
	C394.966858,393.210938 395.348114,402.459961 394.727386,411.641266 
	C394.548248,414.290863 391.487366,416.745667 389.486816,419.545288 
z" data-index="15"></path>
<path fill="#3A3A3A" opacity="1.000000" stroke="none" d="
M226.021393,384.827606 
	C228.043869,386.051422 229.694733,387.142059 231.539383,388.360748 
	C230.044220,390.363220 228.701447,392.161591 228.018616,393.076111 
	C223.158478,391.952148 218.958786,390.468719 214.695969,390.257233 
	C213.080292,390.177032 211.319168,393.028137 209.624344,394.543182 
	C211.164581,396.001282 212.471008,398.036163 214.301498,398.778137 
	C216.853745,399.812622 219.800888,399.863342 222.573547,400.365387 
	C229.495956,401.618835 233.065811,404.893860 233.273666,410.154053 
	C233.505783,416.028687 229.592834,421.422668 223.465179,422.987183 
	C214.694901,425.226471 206.682159,423.668213 199.086624,416.739868 
	C201.006088,415.117828 202.851822,413.558075 203.924591,412.651520 
	C209.045563,414.231720 213.446045,416.285797 217.991333,416.683075 
	C220.098679,416.867218 222.487915,413.826019 224.749359,412.247040 
	C222.766235,410.588867 221.017395,408.369659 218.739136,407.418213 
	C216.049210,406.294922 212.828018,406.525818 209.967896,405.710785 
	C204.282867,404.090759 201.002213,400.274963 200.984695,395.802216 
	C200.963791,390.460449 204.873489,384.705231 210.495667,383.955811 
	C215.426590,383.298523 220.589371,384.380615 226.021393,384.827606 
z" data-index="16"></path>
<path fill="#404040" opacity="1.000000" stroke="none" d="
M179.433624,395.115967 
	C180.150253,394.011230 180.620453,393.216370 181.441574,391.828339 
	C175.688095,391.828339 170.605347,391.828339 165.106934,391.828339 
	C165.106934,389.057068 165.106934,386.668945 165.106934,383.980225 
	C174.704819,383.980225 184.459106,383.980225 195.139648,383.980225 
	C189.148605,394.090057 183.355011,403.866699 177.205841,414.243378 
	C183.175858,414.243378 188.433533,414.243378 194.133926,414.243378 
	C194.133926,417.001678 194.133926,419.380859 194.133926,422.186218 
	C184.289383,422.186218 174.275986,422.186218 163.321625,422.186218 
	C168.806717,412.934540 173.996964,404.180176 179.433624,395.115967 
z" data-index="17"></path>
<path fill="#3F3F3F" opacity="1.000000" stroke="none" d="
M143.009201,422.578430 
	C138.082733,422.578339 133.652878,422.578339 128.189789,422.578339 
	C134.459488,411.985474 140.218719,402.255066 146.420670,391.776672 
	C140.686218,391.776672 135.505447,391.776672 130.162781,391.776672 
	C130.162781,388.835175 130.162781,386.548767 130.162781,383.975403 
	C139.955200,383.975403 149.679825,383.975403 160.304642,383.975403 
	C154.264832,394.036957 148.464142,403.700104 142.197159,414.140076 
	C148.199280,414.140076 153.679718,414.140076 159.469391,414.140076 
	C159.469391,417.228882 159.469391,419.609497 159.469391,422.578552 
	C154.074112,422.578552 148.789963,422.578552 143.009201,422.578430 
z" data-index="18"></path>
<path fill="#3D3D3D" opacity="1.000000" stroke="none" d="
M416.572754,407.654785 
	C418.574646,411.248230 420.569824,414.385284 422.564972,417.522308 
	C423.090881,417.386139 423.616791,417.250000 424.142700,417.113861 
	C423.004944,419.199615 421.867188,421.285370 420.756073,423.322266 
	C410.464661,419.244354 407.977631,415.647797 407.977570,405.300964 
	C407.977539,400.982880 407.977570,396.664825 407.977570,391.975220 
	C406.310913,391.701385 404.771545,391.448486 403.136719,391.179871 
	C403.136719,388.713867 403.136719,386.412842 403.136719,383.982361 
	C404.726288,383.780487 406.175323,383.596466 407.907867,383.376434 
	C407.907867,379.960297 407.907867,376.668457 407.907867,373.202789 
	C410.667450,372.477448 413.185577,371.815582 416.417114,370.966187 
	C416.417114,375.339081 416.417114,379.216644 416.417114,383.307007 
	C418.927246,383.557556 420.842926,383.748810 422.976807,383.961823 
	C422.976807,386.342712 422.976807,388.606049 422.976807,391.217896 
	C421.060547,391.422241 419.146881,391.626312 416.566040,391.901520 
	C416.566040,396.986908 416.566040,402.092651 416.572754,407.654785 
z" data-index="19"></path>
<path fill="#383838" opacity="1.000000" stroke="none" d="
M298.269135,409.972168 
	C298.269043,414.262360 298.269043,418.060333 298.269043,422.198059 
	C295.566925,422.198059 293.164612,422.198059 290.371399,422.198059 
	C290.371399,409.666199 290.371399,397.012238 290.371399,383.985291 
	C293.173798,384.712769 296.793823,382.025665 298.089935,385.634735 
	C301.742218,384.622375 305.433746,383.599152 310.494965,382.196259 
	C309.208923,386.587311 308.448883,389.182281 307.697205,391.748779 
	C300.900787,390.653412 298.367676,392.793762 298.277374,399.511444 
	C298.232727,402.833710 298.269379,406.157074 298.269135,409.972168 
z" data-index="20"></path>
<path fill="#E4E4E3" opacity="1.000000" stroke="none" d="
M259.420776,315.973633 
	C259.567780,324.584137 259.297211,333.207367 259.079407,342.275879 
	C257.276978,343.031555 255.421768,343.341919 253.308655,343.384705 
	C253.041489,334.381500 253.032272,325.645874 253.088257,316.444824 
	C255.103378,315.981689 257.053284,315.984009 259.420776,315.973633 
z" data-index="21"></path>
<path fill="#E4E4E3" opacity="1.000000" stroke="none" d="
M277.004913,342.572327 
	C277.718811,342.196838 278.504150,342.127899 279.676270,342.150696 
	C279.067444,342.454559 278.071930,342.666718 277.004913,342.572327 
z" data-index="22"></path>
<path fill="#FDFEFD" opacity="1.000000" stroke="none" d="
M283.353027,180.201599 
	C287.792236,171.252502 289.660950,162.108749 289.020477,152.256195 
	C293.380463,152.256195 297.309906,152.256195 301.251770,152.256195 
	C306.454681,180.648468 285.943268,213.272736 252.992737,220.781189 
	C252.992737,216.082840 252.826859,211.476379 253.119385,206.899216 
	C253.185440,205.865524 254.665253,204.492584 255.802704,204.023209 
	C267.524811,199.185989 276.771423,191.536148 283.353027,180.201599 
z" data-index="23" style="opacity: 1;"></path>
<path fill="#FCFDFB" opacity="1.000000" stroke="none" d="
M178.943192,151.989014 
	C180.725021,151.989029 182.035690,151.989029 183.831451,151.989029 
	C183.810089,179.264328 197.097168,196.870300 222.572159,205.814072 
	C222.572159,210.703888 222.572159,215.644669 222.572159,220.607346 
	C195.361145,216.953079 168.302612,187.620422 172.689392,151.988983 
	C174.569153,151.988983 176.520599,151.988983 178.943192,151.989014 
z" data-index="24" style="opacity: 1;"></path>
<path fill="#FAFAFA" opacity="1.000000" stroke="none" d="
M69.529373,399.929382 
	C71.767052,411.868988 63.711563,417.146484 56.930378,416.636597 
	C50.737915,416.170959 45.990280,411.233978 45.539082,404.915100 
	C45.063354,398.252716 48.896843,392.968018 55.380692,391.347870 
	C61.051704,389.930847 66.441460,393.096527 69.529373,399.929382 
z" data-index="25"></path>
<path fill="#FBFBFB" opacity="1.000000" stroke="none" d="
M265.550537,392.029114 
	C271.480743,396.046570 273.998871,401.068054 272.792725,405.867371 
	C271.484406,411.073334 267.101440,415.281891 262.281006,415.960907 
	C257.493103,416.635345 252.614517,414.235870 250.120514,409.979828 
	C247.310120,405.183899 247.754166,399.437531 251.265411,395.163513 
	C254.664642,391.025787 259.105774,389.982025 265.550537,392.029114 
z" data-index="26"></path>
<path fill="#F9F9F9" opacity="1.000000" stroke="none" d="
M343.943665,406.863525 
	C341.594971,413.152435 336.490601,416.260498 330.263184,415.531769 
	C324.483368,414.855469 320.500153,411.072815 319.598114,405.403687 
	C318.618439,399.246613 321.391724,394.073639 326.956665,391.677917 
	C332.086670,389.469452 339.149658,390.788818 342.017426,395.683594 
	C343.757568,398.653656 343.419098,402.841522 343.943665,406.863525 
z" data-index="27"></path>
</svg>